<?xml version="1.0" encoding="UTF-8" standalone="no"?>
<!DOCTYPE svg PUBLIC "-//W3C//DTD SVG 1.1//EN"
 "http://www.w3.org/Graphics/SVG/1.1/DTD/svg11.dtd">
<!-- Generated by graphviz version 2.40.1 (20161225.0304)
 -->
<!-- Title: graph1 Pages: 1 -->
<svg width="592pt" height="238pt"
 viewBox="0.00 0.00 592.25 238.20" xmlns="http://www.w3.org/2000/svg" xmlns:xlink="http://www.w3.org/1999/xlink">
<g id="graph0" class="graph" transform="scale(1 1) rotate(0) translate(4 234.2)">
<title>graph1</title>
<polygon fill="#ffffff" stroke="transparent" points="-4,4 -4,-234.2 588.2544,-234.2 588.2544,4 -4,4"/>
<!-- a -->
<g id="node1" class="node">
<title>a</title>
<polygon fill="none" stroke="#000000" points="77.1307,-193.7493 81.4611,-193.8479 85.7467,-193.9953 89.97,-194.1913 94.1139,-194.4353 98.1619,-194.7266 102.0978,-195.0645 105.9064,-195.4479 109.5733,-195.8759 113.0848,-196.3472 116.4282,-196.8606 119.592,-197.4147 122.5656,-198.008 125.3395,-198.6388 127.9056,-199.3054 130.2568,-200.0059 132.3873,-200.7385 134.2926,-201.5012 135.9691,-202.2918 137.415,-203.1082 138.6291,-203.9481 139.6117,-204.8093 140.3643,-205.6894 140.8892,-206.586 141.1899,-207.4965 141.2708,-208.4186 141.1372,-209.3497 140.7953,-210.2873 140.2519,-211.2287 139.5145,-212.1713 138.5913,-213.1127 137.4907,-214.0503 136.2217,-214.9814 134.7936,-215.9035 133.2158,-216.814 131.4978,-217.7106 129.6493,-218.5907 127.6799,-219.4519 125.5989,-220.2918 123.4158,-221.1082 121.1393,-221.8988 118.7784,-222.6615 116.3413,-223.3941 113.836,-224.0946 111.2699,-224.7612 108.6501,-225.392 105.9831,-225.9853 103.275,-226.5394 100.5314,-227.0528 97.7573,-227.5241 94.9572,-227.9521 92.1354,-228.3355 89.2954,-228.6734 86.4405,-228.9647 83.5737,-229.2087 80.6977,-229.4047 77.8146,-229.5521 74.9267,-229.6507 72.036,-229.7 69.1444,-229.7 66.2537,-229.6507 63.3658,-229.5521 60.4828,-229.4047 57.6067,-229.2087 54.7399,-228.9647 51.8851,-228.6734 49.0451,-228.3355 46.2232,-227.9521 43.4231,-227.5241 40.649,-227.0528 37.9054,-226.5394 35.1973,-225.9853 32.5304,-225.392 29.9106,-224.7612 27.3445,-224.0946 24.8391,-223.3941 22.402,-222.6615 20.0411,-221.8988 17.7647,-221.1082 15.5815,-220.2918 13.5005,-219.4519 11.5311,-218.5907 9.6826,-217.7106 7.9647,-216.814 6.3868,-215.9035 4.9587,-214.9814 3.6897,-214.0503 2.5892,-213.1127 1.6659,-212.1713 .9286,-211.2287 .3852,-210.2873 .0432,-209.3497 -.0903,-208.4186 -.0094,-207.4965 .2913,-206.586 .8161,-205.6894 1.5687,-204.8093 2.5513,-203.9481 3.7655,-203.1082 5.2113,-202.2918 6.8879,-201.5012 8.7931,-200.7385 10.9236,-200.0059 13.2748,-199.3054 15.8409,-198.6388 18.6148,-198.008 21.5884,-197.4147 24.7522,-196.8606 28.0956,-196.3472 31.6071,-195.8759 35.274,-195.4479 39.0826,-195.0645 43.0186,-194.7266 47.0665,-194.4353 51.2104,-194.1913 55.4337,-193.9953 59.7193,-193.8479 64.0497,-193.7493 68.407,-193.7 72.7734,-193.7 77.1307,-193.7493"/>
<text text-anchor="middle" x="70.5902" y="-207.5" font-family="Times,serif" font-size="14.00" fill="#ff0000">doEncryptFile</text>
</g>
<!-- b -->
<g id="node2" class="node">
<title>b</title>
<polygon fill="none" stroke="#000000" points="43.5902,-103.9 43.5902,-139.9 97.5902,-139.9 97.5902,-103.9 43.5902,-103.9"/>
<text text-anchor="middle" x="70.5881" y="-117.7" font-family="Times,serif" font-size="14.00" fill="#000000">mmap</text>
</g>
<!-- a&#45;&gt;b -->
<g id="edge1" class="edge">
<title>a&#45;&gt;b</title>
<path fill="none" stroke="#000000" d="M70.5902,-193.5276C70.5902,-181.1124 70.5902,-164.4106 70.5902,-150.2579"/>
<polygon fill="#000000" stroke="#000000" points="74.0903,-150.0453 70.5902,-140.0453 67.0903,-150.0454 74.0903,-150.0453"/>
<text text-anchor="middle" x="101.3027" y="-162.6" font-family="Times,serif" font-size="14.00" fill="#000000">conversion</text>
</g>
<!-- c -->
<g id="node3" class="node">
<title>c</title>
<polygon fill="none" stroke="#000000" points="9.7283,-.5 9.7283,-50.1 131.4521,-50.1 131.4521,-.5 9.7283,-.5"/>
<text text-anchor="middle" x="70.5902" y="-33.5" font-family="Times,serif" font-size="14.00" fill="#ff0000">pthread_create</text>
<polyline fill="none" stroke="#000000" points="9.7283,-25.3 131.4521,-25.3 "/>
<text text-anchor="middle" x="70.5902" y="-8.7" font-family="Times,serif" font-size="14.00" fill="#ff0000">workerThreadStart</text>
</g>
<!-- b&#45;&gt;c -->
<g id="edge2" class="edge">
<title>b&#45;&gt;c</title>
<path fill="none" stroke="#000000" d="M70.5902,-103.7303C70.5902,-91.592 70.5902,-75.2268 70.5902,-60.5856"/>
<polygon fill="#000000" stroke="#000000" points="74.0903,-60.3143 70.5902,-50.3143 67.0903,-60.3143 74.0903,-60.3143"/>
<text text-anchor="middle" x="120.5471" y="-72.8" font-family="Times,serif" font-size="14.00" fill="#000000">Use multi&#45;threads</text>
</g>
<!-- c1 -->
<g id="node4" class="node">
<title>c1</title>
<polygon fill="none" stroke="#000000" points="158.7283,-193.7 158.7283,-229.7 280.4521,-229.7 280.4521,-193.7 158.7283,-193.7"/>
<text text-anchor="middle" x="219.5902" y="-207.5" font-family="Times,serif" font-size="14.00" fill="#ff0000">workerThreadStart</text>
</g>
<!-- d -->
<g id="node5" class="node">
<title>d</title>
<path fill="#c0c0c0" stroke="#000000" d="M145.6354,-103.9C145.6354,-103.9 293.545,-103.9 293.545,-103.9 299.545,-103.9 305.545,-109.9 305.545,-115.9 305.545,-115.9 305.545,-127.9 305.545,-127.9 305.545,-133.9 299.545,-139.9 293.545,-139.9 293.545,-139.9 145.6354,-139.9 145.6354,-139.9 139.6354,-139.9 133.6354,-133.9 133.6354,-127.9 133.6354,-127.9 133.6354,-115.9 133.6354,-115.9 133.6354,-109.9 139.6354,-103.9 145.6354,-103.9"/>
<text text-anchor="middle" x="219.5902" y="-117.7" font-family="Times,serif" font-size="14.00" fill="#000000">distribute memory to thread</text>
</g>
<!-- c1&#45;&gt;d -->
<g id="edge3" class="edge">
<title>c1&#45;&gt;d</title>
<path fill="none" stroke="#000000" d="M219.5902,-193.5276C219.5902,-181.1124 219.5902,-164.4106 219.5902,-150.2579"/>
<polygon fill="#000000" stroke="#000000" points="223.0903,-150.0453 219.5902,-140.0453 216.0903,-150.0454 223.0903,-150.0453"/>
</g>
<!-- e -->
<g id="node6" class="node">
<title>e</title>
<polygon fill="none" stroke="#000000" points="159.8875,-7.3 159.8875,-43.3 279.2929,-43.3 279.2929,-7.3 159.8875,-7.3"/>
<text text-anchor="middle" x="219.5902" y="-21.1" font-family="Times,serif" font-size="14.00" fill="#ff0000">qatAes256EcbEnc</text>
</g>
<!-- d&#45;&gt;e -->
<g id="edge4" class="edge">
<title>d&#45;&gt;e</title>
<path fill="none" stroke="#000000" d="M219.5902,-103.7303C219.5902,-89.563 219.5902,-69.6374 219.5902,-53.4157"/>
<polygon fill="#000000" stroke="#000000" points="223.0903,-53.3882 219.5902,-43.3882 216.0903,-53.3883 223.0903,-53.3882"/>
<text text-anchor="middle" x="266.8269" y="-72.8" font-family="Times,serif" font-size="14.00" fill="#000000">Cipher operation</text>
</g>
<!-- e1 -->
<g id="node7" class="node">
<title>e1</title>
<polygon fill="none" stroke="#000000" points="374.8875,-193.7 374.8875,-229.7 494.2929,-229.7 494.2929,-193.7 374.8875,-193.7"/>
<text text-anchor="middle" x="434.5902" y="-207.5" font-family="Times,serif" font-size="14.00" fill="#ff0000">qatAes256EcbEnc</text>
</g>
<!-- f -->
<g id="node8" class="node">
<title>f</title>
<polygon fill="none" stroke="#000000" points="323.5649,-103.9 323.5649,-139.9 545.6155,-139.9 545.6155,-103.9 323.5649,-103.9"/>
<text text-anchor="middle" x="434.5902" y="-117.7" font-family="Times,serif" font-size="14.00" fill="#000000">qatAes256EcbSessionInit(TODO#1)</text>
</g>
<!-- e1&#45;&gt;f -->
<g id="edge5" class="edge">
<title>e1&#45;&gt;f</title>
<path fill="none" stroke="#000000" d="M434.5902,-193.5276C434.5902,-181.1124 434.5902,-164.4106 434.5902,-150.2579"/>
<polygon fill="#000000" stroke="#000000" points="438.0903,-150.0453 434.5902,-140.0453 431.0903,-150.0454 438.0903,-150.0453"/>
<text text-anchor="middle" x="509.4223" y="-162.6" font-family="Times,serif" font-size="14.00" fill="#000000">prepare instance &amp; session</text>
</g>
<!-- g -->
<g id="node9" class="node">
<title>g</title>
<polygon fill="none" stroke="#000000" points="346.5151,-7.3 346.5151,-43.3 522.6653,-43.3 522.6653,-7.3 346.5151,-7.3"/>
<text text-anchor="middle" x="434.5902" y="-21.1" font-family="Times,serif" font-size="14.00" fill="#ff0000">cipherPerformOp(TODO#2)</text>
</g>
<!-- f&#45;&gt;g -->
<g id="edge6" class="edge">
<title>f&#45;&gt;g</title>
<path fill="none" stroke="#000000" d="M434.5902,-103.7303C434.5902,-89.563 434.5902,-69.6374 434.5902,-53.4157"/>
<polygon fill="#000000" stroke="#000000" points="438.0903,-53.3882 434.5902,-43.3882 431.0903,-53.3883 438.0903,-53.3882"/>
<text text-anchor="middle" x="481.8269" y="-72.8" font-family="Times,serif" font-size="14.00" fill="#000000">Cipher operation</text>
</g>
</g>
</svg>
