<?xml version="1.0" encoding="UTF-8" standalone="no"?>
<!DOCTYPE svg PUBLIC "-//W3C//DTD SVG 1.1//EN"
 "http://www.w3.org/Graphics/SVG/1.1/DTD/svg11.dtd">
<!-- Generated by graphviz version 2.40.1 (20161225.0304)
 -->
<!-- Title: graph1 Pages: 1 -->
<svg width="360pt" height="802pt"
 viewBox="0.00 0.00 360.03 802.40" xmlns="http://www.w3.org/2000/svg" xmlns:xlink="http://www.w3.org/1999/xlink">
<g id="graph0" class="graph" transform="scale(1 1) rotate(0) translate(4 798.4)">
<title>graph1</title>
<polygon fill="#ffffff" stroke="transparent" points="-4,4 -4,-798.4 356.0309,-798.4 356.0309,4 -4,4"/>
<!-- a -->
<g id="node1" class="node">
<title>a</title>
<polygon fill="none" stroke="#000000" points="98.6797,-757.9493 102.8515,-758.0479 106.9802,-758.1953 111.0488,-758.3913 115.041,-758.6353 118.9407,-758.9266 122.7325,-759.2645 126.4017,-759.6479 129.9343,-760.0759 133.3172,-760.5472 136.5382,-761.0606 139.5861,-761.6147 142.4508,-762.208 145.1232,-762.8388 147.5953,-763.5054 149.8604,-764.2059 151.9129,-764.9385 153.7483,-765.7012 155.3635,-766.4918 156.7564,-767.3082 157.9261,-768.1481 158.8727,-769.0093 159.5977,-769.8894 160.1034,-770.786 160.3931,-771.6965 160.471,-772.6186 160.3423,-773.5497 160.0129,-774.4873 159.4894,-775.4287 158.7791,-776.3713 157.8896,-777.3127 156.8294,-778.2503 155.6068,-779.1814 154.231,-780.1035 152.711,-781.014 151.0559,-781.9106 149.2751,-782.7907 147.3778,-783.6519 145.3731,-784.4918 143.2698,-785.3082 141.0768,-786.0988 138.8023,-786.8615 136.4544,-787.5941 134.0408,-788.2946 131.5687,-788.9612 129.0448,-789.592 126.4755,-790.1853 123.8666,-790.7394 121.2235,-791.2528 118.5509,-791.7241 115.8534,-792.1521 113.1349,-792.5355 110.3989,-792.8734 107.6486,-793.1647 104.8868,-793.4087 102.116,-793.6047 99.3386,-793.7521 96.5564,-793.8507 93.7716,-793.9 90.9858,-793.9 88.201,-793.8507 85.4188,-793.7521 82.6414,-793.6047 79.8706,-793.4087 77.1088,-793.1647 74.3585,-792.8734 71.6225,-792.5355 68.904,-792.1521 66.2065,-791.7241 63.5339,-791.2528 60.8908,-790.7394 58.2819,-790.1853 55.7126,-789.592 53.1887,-788.9612 50.7166,-788.2946 48.303,-787.5941 45.9551,-786.8615 43.6806,-786.0988 41.4876,-785.3082 39.3843,-784.4918 37.3796,-783.6519 35.4823,-782.7907 33.7015,-781.9106 32.0464,-781.014 30.5264,-780.1035 29.1506,-779.1814 27.928,-778.2503 26.8678,-777.3127 25.9783,-776.3713 25.268,-775.4287 24.7445,-774.4873 24.4151,-773.5497 24.2864,-772.6186 24.3643,-771.6965 24.654,-770.786 25.1597,-769.8894 25.8847,-769.0093 26.8313,-768.1481 28.001,-767.3082 29.3939,-766.4918 31.0091,-765.7012 32.8445,-764.9385 34.897,-764.2059 37.1621,-763.5054 39.6342,-762.8388 42.3066,-762.208 45.1713,-761.6147 48.2192,-761.0606 51.4402,-760.5472 54.8231,-760.0759 58.3557,-759.6479 62.0249,-759.2645 65.8167,-758.9266 69.7164,-758.6353 73.7086,-758.3913 77.7772,-758.1953 81.9059,-758.0479 86.0777,-757.9493 90.2755,-757.9 94.4819,-757.9 98.6797,-757.9493"/>
<text text-anchor="middle" x="92.3787" y="-771.7" font-family="Times,serif" font-size="14.00" fill="#ff0000">cipherSample</text>
</g>
<!-- b -->
<g id="node2" class="node">
<title>b</title>
<polygon fill="none" stroke="#000000" points="22.9572,-648.9 22.9572,-684.9 161.8002,-684.9 161.8002,-648.9 22.9572,-648.9"/>
<text text-anchor="middle" x="92.3787" y="-662.7" font-family="Times,serif" font-size="14.00" fill="#000000">sampleCyGetInstance</text>
</g>
<!-- a&#45;&gt;b -->
<g id="edge1" class="edge">
<title>a&#45;&gt;b</title>
<path fill="none" stroke="#000000" d="M92.3787,-757.4096C92.3787,-740.3952 92.3787,-714.9055 92.3787,-695.3076"/>
<polygon fill="#000000" stroke="#000000" points="95.8788,-695.1173 92.3787,-685.1173 88.8788,-695.1173 95.8788,-695.1173"/>
<text text-anchor="middle" x="150.6866" y="-726.8" font-family="Times,serif" font-size="14.00" fill="#000000">Discover an instance</text>
</g>
<!-- c -->
<g id="node3" class="node">
<title>c</title>
<polygon fill="none" stroke="#000000" points="29.9565,-539.9 29.9565,-575.9 154.8009,-575.9 154.8009,-539.9 29.9565,-539.9"/>
<text text-anchor="middle" x="92.3787" y="-553.7" font-family="Times,serif" font-size="14.00" fill="#000000">cpaCyStartInstance</text>
</g>
<!-- b&#45;&gt;c -->
<g id="edge2" class="edge">
<title>b&#45;&gt;c</title>
<path fill="none" stroke="#000000" d="M92.3787,-648.4096C92.3787,-631.3952 92.3787,-605.9055 92.3787,-586.3076"/>
<polygon fill="#000000" stroke="#000000" points="95.8788,-586.1173 92.3787,-576.1173 88.8788,-586.1173 95.8788,-586.1173"/>
<text text-anchor="middle" x="130.283" y="-598.6" font-family="Times,serif" font-size="14.00" fill="#000000">Start instance</text>
</g>
<!-- d -->
<g id="node4" class="node">
<title>d</title>
<polygon fill="none" stroke="#000000" points="2.737,-450.1 2.737,-486.1 182.0204,-486.1 182.0204,-450.1 2.737,-450.1"/>
<text text-anchor="middle" x="92.3787" y="-463.9" font-family="Times,serif" font-size="14.00" fill="#000000">cpaCySetAddressTranslation</text>
</g>
<!-- c&#45;&gt;d -->
<g id="edge3" class="edge">
<title>c&#45;&gt;d</title>
<path fill="none" stroke="#000000" d="M92.3787,-539.7276C92.3787,-527.3124 92.3787,-510.6106 92.3787,-496.4579"/>
<polygon fill="#000000" stroke="#000000" points="95.8788,-496.2453 92.3787,-486.2453 88.8788,-496.2454 95.8788,-496.2453"/>
<text text-anchor="middle" x="146.6126" y="-508.8" font-family="Times,serif" font-size="14.00" fill="#000000">Address translation</text>
</g>
<!-- e -->
<g id="node5" class="node">
<title>e</title>
<polygon fill="none" stroke="#000000" points="22.9362,-353.5 22.9362,-389.5 161.8212,-389.5 161.8212,-353.5 22.9362,-353.5"/>
<text text-anchor="middle" x="92.3787" y="-367.3" font-family="Times,serif" font-size="14.00" fill="#000000">sampleCyStartPolling</text>
</g>
<!-- d&#45;&gt;e -->
<g id="edge4" class="edge">
<title>d&#45;&gt;e</title>
<path fill="none" stroke="#000000" d="M92.3787,-449.9303C92.3787,-435.763 92.3787,-415.8374 92.3787,-399.6157"/>
<polygon fill="#000000" stroke="#000000" points="95.8788,-399.5882 92.3787,-389.5882 88.8788,-399.5883 95.8788,-399.5882"/>
<text text-anchor="middle" x="127.1841" y="-419" font-family="Times,serif" font-size="14.00" fill="#000000">Start polling</text>
</g>
<!-- f -->
<g id="node6" class="node">
<title>f</title>
<polygon fill="none" stroke="#000000" points="0,-218.5 0,-292.9 184.7574,-292.9 184.7574,-218.5 0,-218.5"/>
<text text-anchor="middle" x="92.3787" y="-276.3" font-family="Times,serif" font-size="14.00" fill="#000000">cpaCySymSessionCtxGetSize</text>
<polyline fill="none" stroke="#000000" points="0,-268.1 184.7574,-268.1 "/>
<text text-anchor="middle" x="92.3787" y="-251.5" font-family="Times,serif" font-size="14.00" fill="#000000">PHYS_CONTIG_ALLOC</text>
<polyline fill="none" stroke="#000000" points="0,-243.3 184.7574,-243.3 "/>
<text text-anchor="middle" x="92.3787" y="-226.7" font-family="Times,serif" font-size="14.00" fill="#000000">cpaCySymInitSession</text>
</g>
<!-- e&#45;&gt;f -->
<g id="edge5" class="edge">
<title>e&#45;&gt;f</title>
<path fill="none" stroke="#000000" d="M92.3787,-353.4062C92.3787,-340.0062 92.3787,-321.0929 92.3787,-303.4715"/>
<polygon fill="#000000" stroke="#000000" points="95.8788,-303.2969 92.3787,-293.2969 88.8788,-303.297 95.8788,-303.2969"/>
<text text-anchor="middle" x="150.9015" y="-315.6" font-family="Times,serif" font-size="14.00" fill="#000000">Session initialization</text>
</g>
<!-- g -->
<g id="node7" class="node">
<title>g</title>
<polygon fill="none" stroke="#000000" points="35.4004,-128.7 35.4004,-164.7 149.357,-164.7 149.357,-128.7 35.4004,-128.7"/>
<text text-anchor="middle" x="92.3787" y="-142.5" font-family="Times,serif" font-size="14.00" fill="#ff0000">cipherPerformOp</text>
</g>
<!-- f&#45;&gt;g -->
<g id="edge6" class="edge">
<title>f&#45;&gt;g</title>
<path fill="none" stroke="#000000" d="M92.3787,-218.4932C92.3787,-204.3278 92.3787,-188.4235 92.3787,-175.1912"/>
<polygon fill="#000000" stroke="#000000" points="95.8788,-174.8014 92.3787,-164.8014 88.8788,-174.8014 95.8788,-174.8014"/>
<text text-anchor="middle" x="139.6154" y="-187.4" font-family="Times,serif" font-size="14.00" fill="#000000">Cipher operation</text>
</g>
<!-- h -->
<g id="node8" class="node">
<title>h</title>
<polygon fill="none" stroke="#000000" points="15.9425,-.5 15.9425,-74.9 168.8149,-74.9 168.8149,-.5 15.9425,-.5"/>
<text text-anchor="middle" x="92.3787" y="-58.3" font-family="Times,serif" font-size="14.00" fill="#000000">PHYS_CONTIG_FREE</text>
<polyline fill="none" stroke="#000000" points="15.9425,-50.1 168.8149,-50.1 "/>
<text text-anchor="middle" x="92.3787" y="-33.5" font-family="Times,serif" font-size="14.00" fill="#000000">sampleCyStopPolling</text>
<polyline fill="none" stroke="#000000" points="15.9425,-25.3 168.8149,-25.3 "/>
<text text-anchor="middle" x="92.3787" y="-8.7" font-family="Times,serif" font-size="14.00" fill="#000000">cpaCyStopInstance</text>
</g>
<!-- g&#45;&gt;h -->
<g id="edge7" class="edge">
<title>g&#45;&gt;h</title>
<path fill="none" stroke="#000000" d="M92.3787,-128.2096C92.3787,-116.4643 92.3787,-100.6802 92.3787,-85.5835"/>
<polygon fill="#000000" stroke="#000000" points="95.8788,-85.2998 92.3787,-75.2998 88.8788,-85.2999 95.8788,-85.2998"/>
<text text-anchor="middle" x="128.3321" y="-97.6" font-family="Times,serif" font-size="14.00" fill="#000000">free memory</text>
</g>
<!-- g1 -->
<g id="node9" class="node">
<title>g1</title>
<polygon fill="none" stroke="#000000" points="199.4004,-757.9 199.4004,-793.9 313.357,-793.9 313.357,-757.9 199.4004,-757.9"/>
<text text-anchor="middle" x="256.3787" y="-771.7" font-family="Times,serif" font-size="14.00" fill="#ff0000">cipherPerformOp</text>
</g>
<!-- i -->
<g id="node10" class="node">
<title>i</title>
<polygon fill="none" stroke="#000000" points="194.9204,-629.7 194.9204,-704.1 317.837,-704.1 317.837,-629.7 194.9204,-629.7"/>
<text text-anchor="middle" x="256.3787" y="-687.5" font-family="Times,serif" font-size="14.00" fill="#000000">Initialization</text>
<polyline fill="none" stroke="#000000" points="194.9204,-679.3 317.837,-679.3 "/>
<text text-anchor="middle" x="256.3787" y="-662.7" font-family="Times,serif" font-size="14.00" fill="#000000">Memory allocation</text>
<polyline fill="none" stroke="#000000" points="194.9204,-654.5 317.837,-654.5 "/>
<text text-anchor="middle" x="256.3787" y="-637.9" font-family="Times,serif" font-size="14.00" fill="#000000">Memory copy</text>
</g>
<!-- g1&#45;&gt;i -->
<g id="edge8" class="edge">
<title>g1&#45;&gt;i</title>
<path fill="none" stroke="#000000" stroke-dasharray="5,2" d="M256.3787,-757.4096C256.3787,-745.6643 256.3787,-729.8802 256.3787,-714.7835"/>
<polygon fill="#000000" stroke="#000000" points="259.8788,-714.4998 256.3787,-704.4998 252.8788,-714.4999 259.8788,-714.4998"/>
<text text-anchor="middle" x="288.2518" y="-726.8" font-family="Times,serif" font-size="14.00" fill="#000000">preparation</text>
</g>
<!-- j -->
<g id="node11" class="node">
<title>j</title>
<polygon fill="none" stroke="#000000" points="186.1711,-539.9 186.1711,-575.9 326.5863,-575.9 326.5863,-539.9 186.1711,-539.9"/>
<text text-anchor="middle" x="256.3787" y="-553.7" font-family="Times,serif" font-size="14.00" fill="#000000">cpaCySymPerformOp</text>
</g>
<!-- i&#45;&gt;j -->
<g id="edge9" class="edge">
<title>i&#45;&gt;j</title>
<path fill="none" stroke="#000000" d="M256.3787,-629.6932C256.3787,-615.5278 256.3787,-599.6235 256.3787,-586.3912"/>
<polygon fill="#000000" stroke="#000000" points="259.8788,-586.0014 256.3787,-576.0014 252.8788,-586.0014 259.8788,-586.0014"/>
<text text-anchor="middle" x="299.1424" y="-598.6" font-family="Times,serif" font-size="14.00" fill="#000000">Cipher the data</text>
</g>
<!-- k -->
<g id="node12" class="node">
<title>k</title>
<polygon fill="none" stroke="#000000" points="222.3282,-450.1 222.3282,-486.1 290.4292,-486.1 290.4292,-450.1 222.3282,-450.1"/>
<text text-anchor="middle" x="256.3787" y="-463.9" font-family="Times,serif" font-size="14.00" fill="#000000">memcmp</text>
</g>
<!-- j&#45;&gt;k -->
<g id="edge10" class="edge">
<title>j&#45;&gt;k</title>
<path fill="none" stroke="#000000" d="M256.3787,-539.7276C256.3787,-527.3124 256.3787,-510.6106 256.3787,-496.4579"/>
<polygon fill="#000000" stroke="#000000" points="259.8788,-496.2453 256.3787,-486.2453 252.8788,-496.2454 259.8788,-496.2453"/>
<text text-anchor="middle" x="304.2048" y="-508.8" font-family="Times,serif" font-size="14.00" fill="#000000">Check the output</text>
</g>
<!-- l -->
<g id="node13" class="node">
<title>l</title>
<polygon fill="none" stroke="#000000" points="179.9425,-346.7 179.9425,-396.3 332.8149,-396.3 332.8149,-346.7 179.9425,-346.7"/>
<text text-anchor="middle" x="256.3787" y="-379.7" font-family="Times,serif" font-size="14.00" fill="#000000">PHYS_CONTIG_FREE</text>
<polyline fill="none" stroke="#000000" points="179.9425,-371.5 332.8149,-371.5 "/>
<text text-anchor="middle" x="256.3787" y="-354.9" font-family="Times,serif" font-size="14.00" fill="#000000">OS_FREE</text>
</g>
<!-- k&#45;&gt;l -->
<g id="edge11" class="edge">
<title>k&#45;&gt;l</title>
<path fill="none" stroke="#000000" d="M256.3787,-449.9303C256.3787,-437.792 256.3787,-421.4268 256.3787,-406.7856"/>
<polygon fill="#000000" stroke="#000000" points="259.8788,-406.5143 256.3787,-396.5143 252.8788,-406.5143 259.8788,-406.5143"/>
<text text-anchor="middle" x="292.3321" y="-419" font-family="Times,serif" font-size="14.00" fill="#000000">free memory</text>
</g>
</g>
</svg>
