<?xml version="1.0" encoding="UTF-8" standalone="no"?>
<!DOCTYPE svg PUBLIC "-//W3C//DTD SVG 1.1//EN"
 "http://www.w3.org/Graphics/SVG/1.1/DTD/svg11.dtd">
<!-- Generated by graphviz version 2.40.1 (20161225.0304)
 -->
<!-- Title: graph1 Pages: 1 -->
<svg width="318pt" height="543pt"
 viewBox="0.00 0.00 317.63 543.00" xmlns="http://www.w3.org/2000/svg" xmlns:xlink="http://www.w3.org/1999/xlink">
<g id="graph0" class="graph" transform="scale(1 1) rotate(0) translate(4 539)">
<title>graph1</title>
<polygon fill="#ffffff" stroke="transparent" points="-4,4 -4,-539 313.6327,-539 313.6327,4 -4,4"/>
<g id="clust1" class="cluster">
<title>cluster_sgraph1</title>
<polygon fill="#00ff00" stroke="#000000" points="38.0649,-8 38.0649,-202.4 182.0649,-202.4 182.0649,-8 38.0649,-8"/>
</g>
<!-- in -->
<g id="node1" class="node">
<title>in</title>
<polygon fill="none" stroke="#000000" points="74.8191,-498.5 74.8191,-534.5 143.3107,-534.5 143.3107,-498.5 74.8191,-498.5"/>
<text text-anchor="middle" x="109.0649" y="-512.3" font-family="Times,serif" font-size="14.00" fill="#000000">loop start</text>
</g>
<!-- a -->
<g id="node2" class="node">
<title>a</title>
<polygon fill="#ff0000" stroke="#000000" points="0,-336.5 0,-460.5 122.1298,-460.5 122.1298,-336.5 0,-336.5"/>
<text text-anchor="middle" x="61.0649" y="-443.9" font-family="Times,serif" font-size="14.00" fill="#000000">1st buffer</text>
<polyline fill="none" stroke="#000000" points="0,-435.7 122.1298,-435.7 "/>
<text text-anchor="middle" x="61.0649" y="-419.1" font-family="Times,serif" font-size="14.00" fill="#000000">2ed buffer</text>
<polyline fill="none" stroke="#000000" points="0,-410.9 122.1298,-410.9 "/>
<text text-anchor="middle" x="61.0649" y="-394.3" font-family="Times,serif" font-size="14.00" fill="#000000">3rd buffer</text>
<polyline fill="none" stroke="#000000" points="0,-386.1 122.1298,-386.1 "/>
<text text-anchor="middle" x="61.0649" y="-369.5" font-family="Times,serif" font-size="14.00" fill="#000000">......</text>
<polyline fill="none" stroke="#000000" points="0,-361.3 122.1298,-361.3 "/>
<text text-anchor="middle" x="61.0649" y="-344.7" font-family="Times,serif" font-size="14.00" fill="#000000">thisBatch&#45;th buffer</text>
</g>
<!-- in&#45;&gt;a -->
<g id="edge1" class="edge">
<title>in&#45;&gt;a</title>
<path fill="none" stroke="#000000" d="M101.6701,-498.3211C98.4158,-490.3209 94.3625,-480.3565 90.0866,-469.8449"/>
<polygon fill="#000000" stroke="#000000" points="93.2962,-468.4463 86.2861,-460.5021 86.8121,-471.0839 93.2962,-468.4463"/>
</g>
<!-- b -->
<g id="node3" class="node">
<title>b</title>
<polygon fill="#c0c0c0" stroke="#000000" points="120.1255,-247.2493 126.7865,-247.3479 133.3786,-247.4953 139.8749,-247.6913 146.249,-247.9353 152.4755,-248.2266 158.5298,-248.5645 164.3882,-248.9479 170.0286,-249.3759 175.4299,-249.8472 180.5728,-250.3606 185.4393,-250.9147 190.0133,-251.508 194.2801,-252.1388 198.2273,-252.8054 201.8439,-253.5059 205.121,-254.2385 208.0516,-255.0012 210.6305,-255.7918 212.8545,-256.6082 214.7221,-257.4481 216.2336,-258.3093 217.3912,-259.1894 218.1985,-260.086 218.661,-260.9965 218.7855,-261.9186 218.58,-262.8497 218.0541,-263.7873 217.2182,-264.7287 216.084,-265.6713 214.6639,-266.6127 212.971,-267.5503 211.0191,-268.4814 208.8223,-269.4035 206.3953,-270.314 203.7527,-271.2106 200.9094,-272.0907 197.88,-272.9519 194.6791,-273.7918 191.321,-274.6082 187.8194,-275.3988 184.1878,-276.1615 180.4391,-276.8941 176.5854,-277.5946 172.6382,-278.2612 168.6084,-278.892 164.5061,-279.4853 160.3406,-280.0394 156.1204,-280.5528 151.8532,-281.0241 147.5462,-281.4521 143.2056,-281.8355 138.8371,-282.1734 134.4458,-282.4647 130.0361,-282.7087 125.6121,-282.9047 121.1774,-283.0521 116.7353,-283.1507 112.2889,-283.2 107.8409,-283.2 103.3945,-283.1507 98.9524,-283.0521 94.5177,-282.9047 90.0937,-282.7087 85.684,-282.4647 81.2927,-282.1734 76.9242,-281.8355 72.5836,-281.4521 68.2766,-281.0241 64.0094,-280.5528 59.7892,-280.0394 55.6237,-279.4853 51.5214,-278.892 47.4916,-278.2612 43.5444,-277.5946 39.6907,-276.8941 35.942,-276.1615 32.3104,-275.3988 28.8088,-274.6082 25.4507,-273.7918 22.2498,-272.9519 19.2204,-272.0907 16.3771,-271.2106 13.7345,-270.314 11.3075,-269.4035 9.1107,-268.4814 7.1588,-267.5503 5.4659,-266.6127 4.0458,-265.6713 2.9116,-264.7287 2.0757,-263.7873 1.5498,-262.8497 1.3443,-261.9186 1.4688,-260.9965 1.9313,-260.086 2.7386,-259.1894 3.8962,-258.3093 5.4077,-257.4481 7.2753,-256.6082 9.4993,-255.7918 12.0782,-255.0012 15.0088,-254.2385 18.2859,-253.5059 21.9025,-252.8054 25.8497,-252.1388 30.1165,-251.508 34.6905,-250.9147 39.557,-250.3606 44.6999,-249.8472 50.1012,-249.3759 55.7416,-248.9479 61.6,-248.5645 67.6543,-248.2266 73.8808,-247.9353 80.2549,-247.6913 86.7512,-247.4953 93.3433,-247.3479 100.0043,-247.2493 106.7067,-247.2 113.4231,-247.2 120.1255,-247.2493"/>
<text text-anchor="middle" x="110.0649" y="-261" font-family="Times,serif" font-size="14.00" fill="#000000">icp_sal_CyPollInstance</text>
</g>
<!-- a&#45;&gt;b -->
<g id="edge2" class="edge">
<title>a&#45;&gt;b</title>
<path fill="none" stroke="#000000" d="M83.9868,-336.1432C89.5684,-320.9587 95.2598,-305.4759 99.8956,-292.8647"/>
<polygon fill="#000000" stroke="#000000" points="103.1996,-294.0206 103.3648,-283.427 96.6295,-291.6054 103.1996,-294.0206"/>
<text text-anchor="middle" x="107.3468" y="-305.4" font-family="Times,serif" font-size="14.00" fill="#000000">Poll</text>
</g>
<!-- b&#45;&gt;in -->
<g id="edge4" class="edge">
<title>b&#45;&gt;in</title>
<path fill="none" stroke="#000000" d="M117.1095,-283.3729C119.1743,-289.0365 121.3387,-295.3353 123.0649,-301.2 143.1436,-369.4176 144.4039,-391.1511 131.0649,-461 129.2709,-470.3942 125.9119,-480.2268 122.3493,-488.9612"/>
<polygon fill="#000000" stroke="#000000" points="119.0783,-487.707 118.3129,-498.2742 125.501,-490.4907 119.0783,-487.707"/>
<text text-anchor="middle" x="194.3362" y="-394.3" font-family="Times,serif" font-size="14.00" fill="#000000">rounds &#45;= thisBatch</text>
</g>
<!-- b&#45;&gt;b -->
<g id="edge3" class="edge">
<title>b&#45;&gt;b</title>
<path fill="none" stroke="#000000" d="M196.3365,-273.3834C219.4103,-272.9337 236.9251,-270.2059 236.9251,-265.2 236.9251,-262.783 232.8419,-260.8971 226.0213,-259.5423"/>
<polygon fill="#000000" stroke="#000000" points="226.4143,-256.0629 216.0192,-258.1102 225.4221,-262.9922 226.4143,-256.0629"/>
<text text-anchor="middle" x="273.2789" y="-261" font-family="Times,serif" font-size="14.00" fill="#000000">Keep polling</text>
</g>
<!-- c -->
<g id="node4" class="node">
<title>c</title>
<polygon fill="none" stroke="#000000" points="45.5735,-144.3 45.5735,-193.9 174.5563,-193.9 174.5563,-144.3 45.5735,-144.3"/>
<text text-anchor="middle" x="110.0649" y="-177.3" font-family="Times,serif" font-size="14.00" fill="#000000">symCallback</text>
<polyline fill="none" stroke="#000000" points="45.5735,-169.1 174.5563,-169.1 "/>
<text text-anchor="middle" x="110.0649" y="-152.5" font-family="Times,serif" font-size="14.00" fill="#000000">numTackDone += 1</text>
</g>
<!-- b&#45;&gt;c -->
<g id="edge6" class="edge">
<title>b&#45;&gt;c:head</title>
<path fill="none" stroke="#000000" d="M110.0649,-247.0816C110.0649,-235.4073 110.0649,-219.6249 110.0649,-204.4504"/>
<polygon fill="#000000" stroke="#000000" points="113.565,-204.1 110.0649,-194.1 106.565,-204.1 113.565,-204.1"/>
<text text-anchor="middle" x="154.5723" y="-216.6" font-family="Times,serif" font-size="14.00" fill="#000000">Invoke callback</text>
</g>
<!-- d -->
<g id="node5" class="node">
<title>d</title>
<polygon fill="none" stroke="#000000" points="77.9597,-16.5 77.9597,-52.5 142.1701,-52.5 142.1701,-16.5 77.9597,-16.5"/>
<text text-anchor="middle" x="110.0649" y="-30.3" font-family="Times,serif" font-size="14.00" fill="#000000">memcpy</text>
</g>
<!-- c&#45;&gt;d -->
<g id="edge5" class="edge">
<title>c:tail&#45;&gt;d</title>
<path fill="none" stroke="#000000" d="M110.0649,-144.1C110.0649,-116.4651 110.0649,-84.9108 110.0649,-62.7786"/>
<polygon fill="#000000" stroke="#000000" points="113.565,-62.729 110.0649,-52.729 106.565,-62.729 113.565,-62.729"/>
<text text-anchor="middle" x="141.9457" y="-94.2" font-family="Times,serif" font-size="14.00" fill="#000000">copy&#45;to&#45;dst</text>
</g>
</g>
</svg>
